<mxfile host="app.diagrams.net" modified="2024-01-08T18:34:18.308Z" agent="Mozilla/5.0 (Windows NT 10.0; Win64; x64; rv:122.0) Gecko/20100101 Firefox/122.0" etag="-CaF-RuSfUkM3QT5UF2u" version="22.1.17" type="device">
  <diagram name="Page-1" id="nWTz2Y53e9BPaHIJ2zO4">
    <mxGraphModel dx="1687" dy="920" grid="1" gridSize="10" guides="1" tooltips="1" connect="1" arrows="1" fold="1" page="1" pageScale="1" pageWidth="850" pageHeight="1100" math="0" shadow="0">
      <root>
        <mxCell id="0" />
        <mxCell id="1" parent="0" />
        <mxCell id="HKXPzVX4ufBucUOq-ggi-3" value="" style="group" vertex="1" connectable="0" parent="1">
          <mxGeometry x="156" y="300" width="128" height="167.5" as="geometry" />
        </mxCell>
        <mxCell id="HKXPzVX4ufBucUOq-ggi-1" value="" style="rounded=0;whiteSpace=wrap;html=1;" vertex="1" parent="HKXPzVX4ufBucUOq-ggi-3">
          <mxGeometry x="4" width="120" height="150" as="geometry" />
        </mxCell>
        <mxCell id="HKXPzVX4ufBucUOq-ggi-2" value="" style="shape=image;html=1;verticalAlign=top;verticalLabelPosition=bottom;labelBackgroundColor=#ffffff;imageAspect=0;aspect=fixed;image=https://cdn1.iconfinder.com/data/icons/fruit-136/64/Fruit_iconfree_Filled_Outline_raspberry-healthy-organic-food-fruit_icon-128.png" vertex="1" parent="HKXPzVX4ufBucUOq-ggi-3">
          <mxGeometry y="11" width="128" height="128" as="geometry" />
        </mxCell>
        <mxCell id="HKXPzVX4ufBucUOq-ggi-38" value="" style="group;rotation=-180;" vertex="1" connectable="0" parent="HKXPzVX4ufBucUOq-ggi-3">
          <mxGeometry x="45" y="147" width="79" height="17.5" as="geometry" />
        </mxCell>
        <mxCell id="HKXPzVX4ufBucUOq-ggi-39" value="" style="triangle;whiteSpace=wrap;html=1;rotation=-270;" vertex="1" parent="HKXPzVX4ufBucUOq-ggi-38">
          <mxGeometry x="62" width="15" height="20" as="geometry" />
        </mxCell>
        <mxCell id="HKXPzVX4ufBucUOq-ggi-40" value="" style="triangle;whiteSpace=wrap;html=1;rotation=-270;" vertex="1" parent="HKXPzVX4ufBucUOq-ggi-38">
          <mxGeometry x="42" width="15" height="20" as="geometry" />
        </mxCell>
        <mxCell id="HKXPzVX4ufBucUOq-ggi-41" value="" style="triangle;whiteSpace=wrap;html=1;rotation=-270;" vertex="1" parent="HKXPzVX4ufBucUOq-ggi-38">
          <mxGeometry x="23" width="15" height="20" as="geometry" />
        </mxCell>
        <mxCell id="HKXPzVX4ufBucUOq-ggi-42" value="" style="triangle;whiteSpace=wrap;html=1;rotation=-270;" vertex="1" parent="HKXPzVX4ufBucUOq-ggi-38">
          <mxGeometry x="3" width="15" height="20" as="geometry" />
        </mxCell>
        <mxCell id="HKXPzVX4ufBucUOq-ggi-4" value="" style="group" vertex="1" connectable="0" parent="1">
          <mxGeometry x="425" y="300" width="128" height="150" as="geometry" />
        </mxCell>
        <mxCell id="HKXPzVX4ufBucUOq-ggi-5" value="" style="rounded=0;whiteSpace=wrap;html=1;" vertex="1" parent="HKXPzVX4ufBucUOq-ggi-4">
          <mxGeometry x="4" width="120" height="150" as="geometry" />
        </mxCell>
        <mxCell id="HKXPzVX4ufBucUOq-ggi-6" value="" style="shape=image;html=1;verticalAlign=top;verticalLabelPosition=bottom;labelBackgroundColor=#ffffff;imageAspect=0;aspect=fixed;image=https://cdn1.iconfinder.com/data/icons/fruit-136/64/Fruit_iconfree_Filled_Outline_raspberry-healthy-organic-food-fruit_icon-128.png" vertex="1" parent="HKXPzVX4ufBucUOq-ggi-4">
          <mxGeometry y="11" width="128" height="128" as="geometry" />
        </mxCell>
        <mxCell id="HKXPzVX4ufBucUOq-ggi-7" value="" style="sketch=0;pointerEvents=1;shadow=0;dashed=0;html=1;strokeColor=none;fillColor=#434445;aspect=fixed;labelPosition=center;verticalLabelPosition=bottom;verticalAlign=top;align=center;outlineConnect=0;shape=mxgraph.vvd.ethernet_port;" vertex="1" parent="1">
          <mxGeometry x="380" y="300" width="50" height="50" as="geometry" />
        </mxCell>
        <mxCell id="HKXPzVX4ufBucUOq-ggi-8" value="" style="sketch=0;pointerEvents=1;shadow=0;dashed=0;html=1;strokeColor=none;fillColor=#434445;aspect=fixed;labelPosition=center;verticalLabelPosition=bottom;verticalAlign=top;align=center;outlineConnect=0;shape=mxgraph.vvd.ethernet_port;" vertex="1" parent="1">
          <mxGeometry x="280" y="300" width="50" height="50" as="geometry" />
        </mxCell>
        <mxCell id="HKXPzVX4ufBucUOq-ggi-11" value="" style="shape=link;html=1;rounded=0;" edge="1" parent="1" source="HKXPzVX4ufBucUOq-ggi-8" target="HKXPzVX4ufBucUOq-ggi-7">
          <mxGeometry width="100" relative="1" as="geometry">
            <mxPoint x="370" y="400" as="sourcePoint" />
            <mxPoint x="470" y="400" as="targetPoint" />
          </mxGeometry>
        </mxCell>
        <mxCell id="HKXPzVX4ufBucUOq-ggi-15" value="" style="group" vertex="1" connectable="0" parent="1">
          <mxGeometry x="277" y="552.86" width="162" height="90" as="geometry" />
        </mxCell>
        <mxCell id="HKXPzVX4ufBucUOq-ggi-14" value="" style="rounded=0;whiteSpace=wrap;html=1;" vertex="1" parent="HKXPzVX4ufBucUOq-ggi-15">
          <mxGeometry width="162" height="90" as="geometry" />
        </mxCell>
        <mxCell id="HKXPzVX4ufBucUOq-ggi-12" value="" style="dashed=0;outlineConnect=0;html=1;align=center;labelPosition=center;verticalLabelPosition=bottom;verticalAlign=top;shape=mxgraph.weblogos.arduino;fillColor=#36868D;strokeColor=none" vertex="1" parent="HKXPzVX4ufBucUOq-ggi-15">
          <mxGeometry x="11.56" y="15.139999999999986" width="140.4" height="61.72" as="geometry" />
        </mxCell>
        <mxCell id="HKXPzVX4ufBucUOq-ggi-26" value="" style="group" vertex="1" connectable="0" parent="1">
          <mxGeometry x="277.5" y="537.36" width="79" height="17.5" as="geometry" />
        </mxCell>
        <mxCell id="HKXPzVX4ufBucUOq-ggi-16" value="" style="triangle;whiteSpace=wrap;html=1;rotation=-90;" vertex="1" parent="HKXPzVX4ufBucUOq-ggi-26">
          <mxGeometry x="2.5" y="-2.5" width="15" height="20" as="geometry" />
        </mxCell>
        <mxCell id="HKXPzVX4ufBucUOq-ggi-17" value="" style="triangle;whiteSpace=wrap;html=1;rotation=-90;" vertex="1" parent="HKXPzVX4ufBucUOq-ggi-26">
          <mxGeometry x="22.5" y="-2.5" width="15" height="20" as="geometry" />
        </mxCell>
        <mxCell id="HKXPzVX4ufBucUOq-ggi-18" value="" style="triangle;whiteSpace=wrap;html=1;rotation=-90;" vertex="1" parent="HKXPzVX4ufBucUOq-ggi-26">
          <mxGeometry x="41.5" y="-2.5" width="15" height="20" as="geometry" />
        </mxCell>
        <mxCell id="HKXPzVX4ufBucUOq-ggi-19" value="" style="triangle;whiteSpace=wrap;html=1;rotation=-90;" vertex="1" parent="HKXPzVX4ufBucUOq-ggi-26">
          <mxGeometry x="61.5" y="-2.5" width="15" height="20" as="geometry" />
        </mxCell>
        <mxCell id="HKXPzVX4ufBucUOq-ggi-27" value="" style="group" vertex="1" connectable="0" parent="1">
          <mxGeometry x="357.5" y="537.36" width="79" height="17.5" as="geometry" />
        </mxCell>
        <mxCell id="HKXPzVX4ufBucUOq-ggi-28" value="" style="triangle;whiteSpace=wrap;html=1;rotation=-90;" vertex="1" parent="HKXPzVX4ufBucUOq-ggi-27">
          <mxGeometry x="2.5" y="-2.5" width="15" height="20" as="geometry" />
        </mxCell>
        <mxCell id="HKXPzVX4ufBucUOq-ggi-29" value="" style="triangle;whiteSpace=wrap;html=1;rotation=-90;" vertex="1" parent="HKXPzVX4ufBucUOq-ggi-27">
          <mxGeometry x="22.5" y="-2.5" width="15" height="20" as="geometry" />
        </mxCell>
        <mxCell id="HKXPzVX4ufBucUOq-ggi-30" value="" style="triangle;whiteSpace=wrap;html=1;rotation=-90;" vertex="1" parent="HKXPzVX4ufBucUOq-ggi-27">
          <mxGeometry x="41.5" y="-2.5" width="15" height="20" as="geometry" />
        </mxCell>
        <mxCell id="HKXPzVX4ufBucUOq-ggi-31" value="" style="triangle;whiteSpace=wrap;html=1;rotation=-90;" vertex="1" parent="HKXPzVX4ufBucUOq-ggi-27">
          <mxGeometry x="61.5" y="-2.5" width="15" height="20" as="geometry" />
        </mxCell>
        <mxCell id="HKXPzVX4ufBucUOq-ggi-43" value="" style="group;rotation=-180;" vertex="1" connectable="0" parent="1">
          <mxGeometry x="429" y="447" width="79" height="17.5" as="geometry" />
        </mxCell>
        <mxCell id="HKXPzVX4ufBucUOq-ggi-44" value="" style="triangle;whiteSpace=wrap;html=1;rotation=-270;" vertex="1" parent="HKXPzVX4ufBucUOq-ggi-43">
          <mxGeometry x="62" width="15" height="20" as="geometry" />
        </mxCell>
        <mxCell id="HKXPzVX4ufBucUOq-ggi-45" value="" style="triangle;whiteSpace=wrap;html=1;rotation=-270;" vertex="1" parent="HKXPzVX4ufBucUOq-ggi-43">
          <mxGeometry x="42" width="15" height="20" as="geometry" />
        </mxCell>
        <mxCell id="HKXPzVX4ufBucUOq-ggi-46" value="" style="triangle;whiteSpace=wrap;html=1;rotation=-270;" vertex="1" parent="HKXPzVX4ufBucUOq-ggi-43">
          <mxGeometry x="23" width="15" height="20" as="geometry" />
        </mxCell>
        <mxCell id="HKXPzVX4ufBucUOq-ggi-47" value="" style="triangle;whiteSpace=wrap;html=1;rotation=-270;" vertex="1" parent="HKXPzVX4ufBucUOq-ggi-43">
          <mxGeometry x="3" width="15" height="20" as="geometry" />
        </mxCell>
        <mxCell id="HKXPzVX4ufBucUOq-ggi-48" value="" style="endArrow=none;html=1;rounded=0;entryX=1;entryY=0.5;entryDx=0;entryDy=0;exitX=1;exitY=0.5;exitDx=0;exitDy=0;edgeStyle=orthogonalEdgeStyle;strokeWidth=2;" edge="1" parent="1" source="HKXPzVX4ufBucUOq-ggi-17" target="HKXPzVX4ufBucUOq-ggi-47">
          <mxGeometry width="50" height="50" relative="1" as="geometry">
            <mxPoint x="460" y="590" as="sourcePoint" />
            <mxPoint x="440" y="470" as="targetPoint" />
          </mxGeometry>
        </mxCell>
        <mxCell id="HKXPzVX4ufBucUOq-ggi-49" value="" style="endArrow=none;html=1;rounded=0;entryX=1;entryY=0.5;entryDx=0;entryDy=0;exitX=1;exitY=0.5;exitDx=0;exitDy=0;edgeStyle=orthogonalEdgeStyle;strokeWidth=2;" edge="1" parent="1" source="HKXPzVX4ufBucUOq-ggi-16" target="HKXPzVX4ufBucUOq-ggi-39">
          <mxGeometry width="50" height="50" relative="1" as="geometry">
            <mxPoint x="318" y="547" as="sourcePoint" />
            <mxPoint x="450" y="475" as="targetPoint" />
          </mxGeometry>
        </mxCell>
        <mxCell id="HKXPzVX4ufBucUOq-ggi-50" value="" style="sketch=0;aspect=fixed;pointerEvents=1;shadow=0;dashed=0;html=1;strokeColor=none;labelPosition=center;verticalLabelPosition=bottom;verticalAlign=top;align=center;fillColor=#000000;shape=mxgraph.mscae.enterprise.usb" vertex="1" parent="1">
          <mxGeometry x="439" y="586.36" width="50" height="23" as="geometry" />
        </mxCell>
        <mxCell id="HKXPzVX4ufBucUOq-ggi-51" value="" style="sketch=0;aspect=fixed;pointerEvents=1;shadow=0;dashed=0;html=1;strokeColor=none;labelPosition=center;verticalLabelPosition=bottom;verticalAlign=top;align=center;fillColor=#000000;shape=mxgraph.azure.laptop" vertex="1" parent="1">
          <mxGeometry x="600" y="561.04" width="122.73" height="73.64" as="geometry" />
        </mxCell>
        <mxCell id="HKXPzVX4ufBucUOq-ggi-52" value="" style="endArrow=none;html=1;rounded=0;entryX=0.08;entryY=0.5;entryDx=0;entryDy=0;exitX=1;exitY=0.51;exitDx=0;exitDy=0;edgeStyle=orthogonalEdgeStyle;strokeWidth=2;exitPerimeter=0;entryPerimeter=0;" edge="1" parent="1" source="HKXPzVX4ufBucUOq-ggi-50" target="HKXPzVX4ufBucUOq-ggi-51">
          <mxGeometry width="50" height="50" relative="1" as="geometry">
            <mxPoint x="318" y="547" as="sourcePoint" />
            <mxPoint x="449" y="475" as="targetPoint" />
          </mxGeometry>
        </mxCell>
        <mxCell id="HKXPzVX4ufBucUOq-ggi-53" value="GPIO" style="text;html=1;align=center;verticalAlign=middle;resizable=0;points=[];autosize=1;strokeColor=none;fillColor=none;" vertex="1" parent="1">
          <mxGeometry x="274" y="442" width="50" height="30" as="geometry" />
        </mxCell>
        <mxCell id="HKXPzVX4ufBucUOq-ggi-54" value="GPIO" style="text;html=1;align=center;verticalAlign=middle;resizable=0;points=[];autosize=1;strokeColor=none;fillColor=none;" vertex="1" parent="1">
          <mxGeometry x="380" y="440.75" width="50" height="30" as="geometry" />
        </mxCell>
        <mxCell id="HKXPzVX4ufBucUOq-ggi-55" value="RPI-1" style="text;html=1;align=center;verticalAlign=middle;resizable=0;points=[];autosize=1;strokeColor=none;fillColor=none;fontSize=16;" vertex="1" parent="1">
          <mxGeometry x="190" y="268" width="60" height="30" as="geometry" />
        </mxCell>
        <mxCell id="HKXPzVX4ufBucUOq-ggi-56" value="RPI-2" style="text;html=1;align=center;verticalAlign=middle;resizable=0;points=[];autosize=1;strokeColor=none;fillColor=none;fontSize=16;" vertex="1" parent="1">
          <mxGeometry x="459" y="268" width="60" height="30" as="geometry" />
        </mxCell>
        <mxCell id="HKXPzVX4ufBucUOq-ggi-57" value="Setup" style="text;html=1;align=center;verticalAlign=middle;resizable=0;points=[];autosize=1;strokeColor=none;fillColor=none;fontSize=24;fontStyle=1" vertex="1" parent="1">
          <mxGeometry x="390" y="228" width="90" height="40" as="geometry" />
        </mxCell>
      </root>
    </mxGraphModel>
  </diagram>
</mxfile>
